<svg width="305" height="127" viewBox="0 0 305 127" fill="none" xmlns="http://www.w3.org/2000/svg">
<rect width="305" height="127" rx="30" fill="#D6BFFF"/>
<path opacity="0.4" d="M261.66 71.7944H256.915C256.452 71.7944 256.076 72.1769 256.076 72.6472C256.076 73.1184 256.452 73.5001 256.915 73.5001H261.66C262.123 73.5001 262.5 73.1184 262.5 72.6472C262.5 72.1769 262.123 71.7944 261.66 71.7944" fill="#864AFC"/>
<path d="M253.591 61.7532L258.087 65.3866C258.196 65.4735 258.214 65.633 258.13 65.744L252.799 72.6902C252.464 73.1193 251.97 73.362 251.441 73.371L248.531 73.4068C248.376 73.4086 248.24 73.3011 248.205 73.147L247.543 70.2715C247.428 69.7429 247.543 69.1965 247.878 68.7755L253.235 61.7962C253.322 61.6842 253.482 61.6645 253.591 61.7532" fill="#864AFC"/>
<path opacity="0.4" d="M260.1 63.2212L259.234 64.3033C259.146 64.4135 258.989 64.4314 258.881 64.3436C257.827 63.4908 255.129 61.3024 254.38 60.6959C254.271 60.6063 254.256 60.4469 254.344 60.3358L255.18 59.2975C255.938 58.3211 257.261 58.2315 258.328 59.0826L259.554 60.059C260.056 60.4531 260.391 60.9727 260.506 61.5192C260.638 62.1202 260.497 62.7106 260.1 63.2212" fill="#864AFC"/>
<path opacity="0.4" d="M289.641 62.5892C289.641 62.6364 289.271 67.3175 289.06 69.2875C288.927 70.4965 288.148 71.2298 286.979 71.2507C286.081 71.2708 285.201 71.2778 284.336 71.2778C283.417 71.2778 282.519 71.2708 281.647 71.2507C280.517 71.2236 279.737 70.4757 279.612 69.2875C279.394 67.3105 279.031 62.6364 279.024 62.5892C279.017 62.4468 279.063 62.3114 279.156 62.2017C279.248 62.1003 279.381 62.0392 279.52 62.0392H289.152C289.291 62.0392 289.416 62.1003 289.516 62.2017C289.608 62.3114 289.655 62.4468 289.641 62.5892" fill="#864AFC"/>
<path d="M290.583 60.1506C290.583 59.8652 290.358 59.6416 290.088 59.6416H288.063C287.652 59.6416 287.294 59.3486 287.202 58.9354L287.088 58.4292C286.93 57.8174 286.382 57.3889 285.767 57.3889H282.9C282.279 57.3889 281.736 57.8174 281.572 58.4625L281.466 58.9361C281.373 59.3486 281.015 59.6416 280.604 59.6416H278.579C278.308 59.6416 278.083 59.8652 278.083 60.1506V60.4145C278.083 60.693 278.308 60.9235 278.579 60.9235H290.088C290.358 60.9235 290.583 60.693 290.583 60.4145V60.1506Z" fill="#864AFC"/>
</svg>
