<svg width="13" height="12" viewBox="0 0 13 12" fill="none" xmlns="http://www.w3.org/2000/svg">
<path opacity="0.4" d="M6.16045 11.8972C4.71855 11.0066 3.37817 9.95642 2.16382 8.76595C1.30654 7.91596 0.651825 6.8781 0.249706 5.73167C-0.468789 3.49589 0.367584 0.940712 2.70269 0.182143C3.93521 -0.204925 5.27567 0.0326866 6.3064 0.820938V0.820938C7.33749 0.0335682 8.67752 -0.203966 9.9101 0.182143C12.2452 0.940712 13.0872 3.49589 12.3687 5.73167C11.9698 6.87702 11.319 7.91479 10.4658 8.76595C9.25036 9.95512 7.91013 11.0052 6.46918 11.8972L6.31201 11.9998L6.16045 11.8972Z" fill="#200E32"/>
<path d="M6.3226 12L6.17423 11.8973C4.73055 11.0068 3.3883 9.95667 2.17198 8.7661C1.31064 7.91729 0.652024 6.87934 0.246641 5.73182C-0.466241 3.49604 0.370132 0.940863 2.70524 0.182294C3.93776 -0.204774 5.2959 0.0330195 6.3226 0.82787V12Z" fill="#200E32"/>
<path d="M10.2369 4.42051V4.42051C10.11 4.41234 9.99184 4.34893 9.9101 4.24514C9.82835 4.14136 9.79018 4.00631 9.80453 3.87163V3.87163C9.81826 3.42804 9.56586 3.02428 9.17663 2.86719C8.92981 2.79981 8.78035 2.53251 8.84209 2.26891C8.90068 2.00954 9.14355 1.84827 9.38765 1.90665C9.41847 1.91176 9.44814 1.92293 9.47514 1.93958C10.2556 2.23992 10.7609 3.04822 10.7207 3.93201C10.7194 4.06596 10.6672 4.19362 10.5759 4.28572C10.4847 4.37782 10.3623 4.42647 10.2369 4.42051Z" fill="#200E32"/>
</svg>
