<svg width="34" height="34" viewBox="0 0 34 34" fill="none" xmlns="http://www.w3.org/2000/svg">
<path opacity="0.4" d="M17 34C7.62451 34 1.11866e-05 26.3738 1.11866e-05 17C1.11866e-05 7.6262 7.62451 0 17 0C26.3738 0 34 7.6262 34 17C34 26.3738 26.3738 34 17 34" fill="#864AFC"/>
<path d="M19.4521 24.1752C19.1274 24.1752 18.801 24.0511 18.5528 23.8029L12.6249 17.9039C12.3852 17.6642 12.2509 17.3395 12.2509 16.9995C12.2509 16.6612 12.3852 16.3365 12.6249 16.0968L18.5528 10.1944C19.0509 9.69802 19.8567 9.69802 20.3548 10.1978C20.8512 10.6976 20.8495 11.5051 20.3514 12.0015L15.3313 16.9995L20.3514 21.9975C20.8495 22.4939 20.8512 23.2997 20.3548 23.7995C20.1066 24.0511 19.7785 24.1752 19.4521 24.1752" fill="#864AFC"/>
</svg>
