<svg width="13" height="10" viewBox="0 0 13 10" fill="none" xmlns="http://www.w3.org/2000/svg">
<path opacity="0.4" fill-rule="evenodd" clip-rule="evenodd" d="M9.83537 1.27879C10.9024 2.10242 11.811 3.30909 12.4634 4.81818C12.5122 4.93273 12.5122 5.06667 12.4634 5.17576C11.1585 8.19394 8.83537 10 6.25 10H6.2439C3.66463 10 1.34146 8.19394 0.0365854 5.17576C-0.0121951 5.06667 -0.0121951 4.93273 0.0365854 4.81818C1.34146 1.79939 3.66463 0 6.2439 0H6.25C7.54268 0 8.76829 0.448485 9.83537 1.27879ZM3.81096 5C3.81096 6.33334 4.90242 7.41818 6.24998 7.41818C7.59145 7.41818 8.68291 6.33334 8.68291 5C8.68291 3.66061 7.59145 2.57576 6.24998 2.57576C4.90242 2.57576 3.81096 3.66061 3.81096 5Z" fill="#200E32"/>
<path d="M7.76931 4.99806C7.76931 5.82836 7.08638 6.50715 6.25101 6.50715C5.40955 6.50715 4.72662 5.82836 4.72662 4.99806C4.72662 4.89503 4.73882 4.79867 4.75711 4.7017H4.7876C5.46443 4.7017 6.01321 4.16836 6.0376 3.50109C6.10467 3.48958 6.17784 3.48291 6.25101 3.48291C7.08638 3.48291 7.76931 4.1617 7.76931 4.99806" fill="#200E32"/>
</svg>
