<svg width="8" height="2" viewBox="0 0 8 2" fill="none" xmlns="http://www.w3.org/2000/svg">
<path fill-rule="evenodd" clip-rule="evenodd" d="M4.00027 1.74124C3.5181 1.73444 3.131 1.34676 3.131 0.863862C3.131 0.387765 3.52489 -0.0067147 4.00027 8.66825e-05C4.48244 8.66825e-05 4.86954 0.387765 4.86954 0.870663C4.86954 1.34676 4.48244 1.74124 4.00027 1.74124ZM0.869271 1.7413C0.393888 1.7413 0 1.34682 0 0.870723C0 0.387826 0.387097 0.000146831 0.869271 0.000146831C1.35144 0.000146831 1.73854 0.387826 1.73854 0.870723C1.73854 1.34682 1.35144 1.7345 0.869271 1.7413ZM6.26145 0.870698C6.26145 1.34679 6.64854 1.74127 7.13072 1.74127C7.61289 1.74127 7.99999 1.34679 7.99999 0.870698C7.99999 0.3878 7.61289 0.000120925 7.13072 0.000120925C6.64854 0.000120925 6.26145 0.3878 6.26145 0.870698Z" fill="#200E32"/>
</svg>
