<svg width="30" height="30" viewBox="0 0 30 30" fill="none" xmlns="http://www.w3.org/2000/svg">
<path opacity="0.4" d="M15 30C6.7275 30 0 23.271 0 15C0 6.729 6.7275 0 15 0C23.271 0 30 6.729 30 15C30 23.271 23.271 30 15 30" fill="#864AFC"/>
<path d="M17.1635 21.3311C16.877 21.3311 16.589 21.2216 16.37 21.0026L11.1395 15.7976C10.928 15.5861 10.8095 15.2996 10.8095 14.9996C10.8095 14.7011 10.928 14.4146 11.1395 14.2031L16.37 8.99506C16.8095 8.55706 17.5205 8.55706 17.96 8.99806C18.398 9.43906 18.3965 10.1516 17.957 10.5896L13.5275 14.9996L17.957 19.4096C18.3965 19.8476 18.398 20.5586 17.96 20.9996C17.741 21.2216 17.4515 21.3311 17.1635 21.3311" fill="#864AFC"/>
</svg>
