<svg width="10" height="13" viewBox="0 0 10 13" fill="none" xmlns="http://www.w3.org/2000/svg">
<path opacity="0.4" d="M4.99448 10.3885L0.937155 12.4151C0.630755 12.5814 0.248552 12.4703 0.0771775 12.1652C0.0271275 12.0693 0.000660952 11.9626 0 11.8543V7.318C0 7.76774 0.253583 8.04536 0.920617 8.35629L4.99448 10.3885Z" fill="#200E32"/>
<path fill-rule="evenodd" clip-rule="evenodd" d="M3.05954 0H6.91841C8.61081 0 9.98346 0.666282 10 2.37085V11.8543C9.99932 11.9609 9.97283 12.0657 9.92282 12.1596C9.84247 12.3129 9.70371 12.4267 9.53842 12.4748C9.37312 12.523 9.19549 12.5014 9.04631 12.4151L4.99449 10.3884L0.920624 8.35629C0.253591 8.04535 7.62939e-06 7.76774 7.62939e-06 7.318V2.37085C7.62939e-06 0.666282 1.37266 0 3.05954 0ZM2.64057 4.76392H7.34288C7.61385 4.76392 7.83351 4.54268 7.83351 4.26976C7.83351 3.99685 7.61385 3.7756 7.34288 3.7756H2.64057C2.36961 3.7756 2.14995 3.99685 2.14995 4.26976C2.14995 4.54268 2.36961 4.76392 2.64057 4.76392Z" fill="#200E32"/>
</svg>
